<?xml version="1.0" encoding="UTF-8"?> <svg xmlns:xodm="http://www.corel.com/coreldraw/odm/2003" xmlns="http://www.w3.org/2000/svg" xmlns:xlink="http://www.w3.org/1999/xlink" version="1.1" id="Camada_1" x="0px" y="0px" viewBox="0 0 618.7 406.4" style="enable-background:new 0 0 618.7 406.4;" xml:space="preserve"> <style type="text/css"> .st0{fill-rule:evenodd;clip-rule:evenodd;fill:#DF5D00;} .st1{fill-rule:evenodd;clip-rule:evenodd;fill:#292B2B;} </style> <path class="st0" d="M542.2,145h2.3c1.3,5.5,4.7,13.5,6.7,18.4l14.4,37c2.3,6.1,4.9,13.4,7.5,18.7h-59.4L542.2,145L542.2,145z M125.6,26.3v103.9c-13.2,0-22.1-1.1-35.4-1.1c-17.5,0-69.6-2.6-81.5,4.1C3.9,135.9,0,143.7,0,150.7v106.2 c0,17.8,13.1,22.8,30.8,22.8h94.8v100.5c0,16.1,8.9,26.3,25.1,26.3H250c14.9,0,25.1-7.8,25.1-22.8v-79.9h211.2c4,0,4.5-6.6,6.8-14.9 l2.3-5.7c1.8,7.6,5.1,13,6.8,20.5h49.1c0.9-4,7.2-33.4,9.1-36.5c0,7,11.1,66.9,12.6,73.1c0.2-0.2,0.4-0.9,0.4-0.7l9.8-34.7 c14.5,0,19.1,2.2,20.5-3.4c-2.9-4.1-7-2.3-21.7-2.3c-4.1,0-3.7,4.1-4.6,8c-0.8,3.4-1.9,6.6-2.3,10.3c-3.6-2.6-1.8-1.6-2.8-7.5 l-13.2-64.5l-8.7,39.3c-1.3,5.2-2.7,8.7-2.7,14.4h-42.2c-7.5-32.3-14.9-17.7-4.7-45.8c1.7-4.8,4.7-11.2,5.8-15.8h73.1 c3,5.6,5.1,13.2,7.7,19.7c2.5,6.4,5.6,13.6,7.2,20.2h24L603,238.3c-11.2-25-28.2-70.3-39.5-98.6c-1.5-3.7-2.5-6.1-3.9-9.8 c-4.2-10.9,0.1-8.8-26.6-8.8c-3.5,0-2.4,0.8-3.7,3.2L468,277.4h22.8c-0.6,6.8-4.1,14.8-5.7,21.7h-242v77.6h-83.3V250H29.7v-91.3 h130.1v-129h83.3v62.8h32V21.7C275.1,7.9,262.8,0,248.9,0h-97C135.9,0,125.6,10.2,125.6,26.3L125.6,26.3z"></path> <path class="st1" d="M352.7,215.8c-11,0-19.9-0.8-27.6-11.2c-12.9-17.3-13.5-73.3,21.9-73.3c19.4,0,28.5,7,33.1,26.2 C385.8,180.6,379,215.8,352.7,215.8z M296.8,166.7c0,20.3,0.7,39.1,17.4,54.5c3.5,3.3,7.9,5.8,12.6,7.9c8.4,3.8,23.2,4.4,32.7,1.4 c15.8-5,17.4-13,22.9-17c0,38-14.7,49.1-47.8,45.5c-13.5-1.5-17.9-6.4-24.2-7.8v19.4c9.1,0.8,17.1,5.7,36.5,5.7 c36.3,0,54.8-19.6,54.8-55.9V117.6h-19.4v16c-2.1-1.6-4.1-4.7-6.5-7.2c-3-3-3.6-4.1-7.5-6.2C333.3,101.2,296.8,128.2,296.8,166.7 L296.8,166.7z"></path> <path class="st1" d="M174.7,131.3v145h20.5v-44.5h55.9c4.7,0,3.4-3.6,3.4-12.6h-59.4v-91.3C181.7,127.9,174.7,125.9,174.7,131.3 L174.7,131.3z"></path> <path class="st0" d="M422.4,277.4h22.8v-153c0-2.6-0.8-3.4-3.4-3.4h-19.4V277.4L422.4,277.4z"></path> <polygon class="st1" points="260.3,276.3 280.8,276.3 280.8,162.1 260.3,162.1 "></polygon> <polygon class="st1" points="260.3,148.4 280.8,148.4 280.8,127.9 260.3,127.9 "></polygon> </svg> 